<svg width="246" height="76" viewBox="0 0 246 76" fill="none" xmlns="http://www.w3.org/2000/svg">
<path d="M7.55292 14.9371C11.7279 10.951 17.397 8.62436 23.1428 8.33501C25.1093 8.33501 27.0816 8.34682 29.0481 8.3291C28.9477 10.4373 29.0481 12.5514 28.989 14.6595C28.7115 19.3719 26.9694 23.978 24.0345 27.6747C20.2197 32.647 14.3853 35.9834 8.19069 36.8456C5.48608 37.2826 2.74013 37.0051 0.0178071 37.0818C0.0650492 34.7611 -0.0825823 32.4344 0.100481 30.1195C0.631954 24.3796 3.34247 18.8818 7.55292 14.9371Z" fill="#435D30"/>
<path d="M30.8691 8.3291C32.9773 8.35272 35.0855 8.31729 37.1996 8.34091C42.4612 8.71294 47.6519 10.7325 51.6143 14.2344C55.9842 17.9842 58.9782 23.3462 59.7459 29.0743C60.0825 31.7317 59.8699 34.4185 59.9998 37.0877C58.1573 37.0818 56.3208 37.0759 54.4784 37.0877C49.949 36.9637 45.4965 35.4992 41.7053 33.0308C39.9573 31.7789 38.1621 30.5093 36.8512 28.7731C33.9753 25.5607 32.0207 21.5274 31.2825 17.2756C30.7274 14.3229 30.9518 11.3113 30.8691 8.3291Z" fill="#435D30"/>
<path d="M0.0218289 38.7764C1.8938 38.8827 3.77167 38.6878 5.63773 38.8945C13.6275 39.0657 21.3812 43.5537 25.5207 50.3861C27.8947 54.2127 29.1702 58.748 29.0049 63.2537C28.9989 64.73 29.0226 66.2004 28.9812 67.6708C26.0168 67.5822 23.0228 67.8243 20.0879 67.2515C13.5685 66.1532 7.57466 62.2734 3.96654 56.7343C1.23241 52.7069 -0.131708 47.7878 0.0100184 42.9278C0.0100184 41.54 0.0100184 40.1582 0.0218289 38.7764Z" fill="#435D30"/>
<path d="M50.0221 39.4021C53.2346 38.6875 56.5475 38.8056 59.8131 38.8056L59.9548 38.9474C59.8839 42.0358 60.126 45.1597 59.506 48.2127C58.2009 55.0628 53.6657 61.1807 47.5656 64.5408C43.7685 66.6548 39.4104 67.6942 35.07 67.6469C33.6823 67.6528 32.2886 67.6233 30.9009 67.6646C30.9009 65.1077 30.7946 62.5389 31.084 59.9937C31.7572 53.8345 35.0877 48.1005 39.8769 44.2267C42.8413 41.8882 46.3254 40.1934 50.0221 39.4021Z" fill="#435D30"/>
<path d="M76.32 60V15.6H95.7C98.54 15.6 100.96 16.1 102.96 17.1C104.96 18.1 106.48 19.44 107.52 21.12C108.6 22.8 109.14 24.64 109.14 26.64C109.14 28.68 108.76 30.36 108 31.68C107.28 33 106.4 34.04 105.36 34.8C104.36 35.52 103.44 36.02 102.6 36.3V36.72C103.64 37 104.8 37.54 106.08 38.34C107.4 39.14 108.54 40.28 109.5 41.76C110.46 43.2 110.94 45.08 110.94 47.4C110.94 49.48 110.44 51.5 109.44 53.46C108.44 55.38 106.86 56.96 104.7 58.2C102.54 59.4 99.68 60 96.12 60H76.32ZM94.62 22.5H84.48V34.08H94.62C96.94 34.08 98.62 33.5 99.66 32.34C100.7 31.18 101.22 29.82 101.22 28.26C101.22 26.74 100.7 25.4 99.66 24.24C98.62 23.08 96.94 22.5 94.62 22.5ZM95.22 40.32H84.48V53.1H95.22C97.86 53.1 99.78 52.46 100.98 51.18C102.18 49.9 102.78 48.4 102.78 46.68C102.78 45 102.18 43.52 100.98 42.24C99.78 40.96 97.86 40.32 95.22 40.32ZM118.215 60V15.6H126.375V52.92H148.455V60H118.215ZM173.715 60.6C170.075 60.6 166.875 59.96 164.115 58.68C161.355 57.36 159.035 55.62 157.155 53.46C155.315 51.26 153.915 48.8 152.955 46.08C152.035 43.36 151.575 40.58 151.575 37.74C151.575 34.9 152.035 32.14 152.955 29.46C153.915 26.74 155.315 24.3 157.155 22.14C159.035 19.98 161.355 18.26 164.115 16.98C166.875 15.66 170.075 15 173.715 15C177.355 15 180.555 15.66 183.315 16.98C186.075 18.26 188.375 19.98 190.215 22.14C192.095 24.3 193.495 26.74 194.415 29.46C195.375 32.14 195.855 34.9 195.855 37.74C195.855 40.58 195.375 43.36 194.415 46.08C193.495 48.8 192.095 51.26 190.215 53.46C188.375 55.62 186.075 57.36 183.315 58.68C180.555 59.96 177.355 60.6 173.715 60.6ZM173.715 53.22C176.715 53.22 179.215 52.48 181.215 51C183.255 49.52 184.795 47.6 185.835 45.24C186.915 42.88 187.455 40.38 187.455 37.74C187.455 35.14 186.915 32.68 185.835 30.36C184.795 28 183.255 26.08 181.215 24.6C179.215 23.12 176.715 22.38 173.715 22.38C170.715 22.38 168.195 23.12 166.155 24.6C164.115 26.08 162.575 28 161.535 30.36C160.495 32.68 159.975 35.14 159.975 37.74C159.975 40.38 160.495 42.88 161.535 45.24C162.575 47.6 164.115 49.52 166.155 51C168.195 52.48 170.715 53.22 173.715 53.22ZM223.283 60.6C219.563 60.6 216.323 59.96 213.562 58.68C210.803 57.4 208.503 55.68 206.663 53.52C204.863 51.32 203.503 48.88 202.583 46.2C201.703 43.48 201.263 40.7 201.263 37.86C201.263 35.02 201.703 32.24 202.583 29.52C203.503 26.8 204.883 24.36 206.723 22.2C208.563 20 210.883 18.26 213.683 16.98C216.483 15.66 219.743 15 223.463 15C226.383 15 228.883 15.38 230.963 16.14C233.083 16.86 234.843 17.8 236.243 18.96C237.683 20.12 238.823 21.36 239.663 22.68C240.543 23.96 241.203 25.18 241.643 26.34C242.083 27.5 242.383 28.46 242.543 29.22C242.703 29.94 242.783 30.3 242.783 30.3H234.623C234.623 30.3 234.543 30.04 234.383 29.52C234.263 28.96 233.983 28.28 233.543 27.48C233.103 26.68 232.463 25.88 231.622 25.08C230.823 24.28 229.763 23.62 228.443 23.1C227.123 22.54 225.483 22.26 223.523 22.26C221.163 22.26 219.103 22.7 217.343 23.58C215.623 24.46 214.183 25.64 213.023 27.12C211.863 28.6 211.003 30.26 210.443 32.1C209.883 33.94 209.603 35.82 209.603 37.74C209.603 40.34 210.123 42.84 211.163 45.24C212.203 47.64 213.743 49.6 215.783 51.12C217.863 52.64 220.423 53.4 223.463 53.4C226.983 53.4 229.763 52.44 231.803 50.52C233.883 48.6 235.063 46.04 235.343 42.84H223.223V36.36H243.263V39.66C243.263 44.26 242.383 48.12 240.623 51.24C238.863 54.32 236.463 56.66 233.423 58.26C230.423 59.82 227.043 60.6 223.283 60.6Z" fill="#435D30"/>
</svg>
