<svg width="128" height="128" viewBox="0 0 128 128" fill="none" xmlns="http://www.w3.org/2000/svg">
<path d="M54.8429 22.9602L50.3967 16.124C19.6339 36.8021 2.54346 61.9264 2.54346 82.6045C2.54346 102.599 17.244 112 29.7186 112C45.4418 112 56.5492 98.6667 56.5492 84.6553C56.5492 72.8643 49.0295 62.7796 38.9447 59.0169C36.0407 57.9888 33.3062 57.1356 33.3062 52.1808C33.3062 45.8587 37.922 36.463 54.8429 22.9602ZM122.691 22.9602L118.244 16.124C87.8206 36.8021 70.3911 61.9264 70.3911 82.6045C70.3911 102.599 85.4307 112 97.9054 112C113.798 112 125.081 98.6667 125.081 84.6553C125.081 72.8643 117.391 62.7796 106.962 59.0169C104.058 57.9888 101.493 57.1356 101.493 52.1808C101.493 45.8587 106.278 36.4575 122.685 22.9547L122.691 22.9602Z" fill="#435D30" fill-opacity="0.58" stroke="#435D30" stroke-opacity="0.58" stroke-width="0.00128"/>
</svg>
